<?xml version="1.0" standalone="no"?>
<!DOCTYPE svg PUBLIC "-//W3C//DTD SVG 20010904//EN"
 "http://www.w3.org/TR/2001/REC-SVG-20010904/DTD/svg10.dtd">
<svg version="1.0" xmlns="http://www.w3.org/2000/svg"
 width="551.000000pt" height="603.000000pt" viewBox="0 0 551.000000 603.000000"
 preserveAspectRatio="xMidYMid meet">

<g transform="translate(0.000000,603.000000) scale(0.100000,-0.100000)"
fill="#000000" stroke="none">
<path d="M1488 5843 c-11 -13 -17 -53 -22 -145 -14 -279 -77 -509 -184 -670
-29 -44 -103 -86 -159 -90 -32 -3 -38 0 -38 17 0 11 -7 20 -15 21 -8 0 -35 3
-60 7 -83 13 -178 17 -198 10 -18 -7 -12 -20 70 -148 49 -77 92 -146 95 -153
3 -7 -46 -65 -109 -131 -285 -296 -422 -551 -469 -879 -19 -133 -7 -400 25
-551 49 -231 118 -411 200 -526 58 -80 202 -219 297 -287 49 -34 87 -64 85
-66 -6 -5 -203 95 -264 134 -84 54 -141 112 -205 209 -203 307 -279 616 -294
1195 -3 129 -10 243 -15 253 -14 27 -46 21 -63 -13 -23 -44 -22 -1442 1 -1646
21 -194 56 -359 104 -498 48 -139 77 -199 135 -281 125 -176 318 -288 624
-361 177 -42 280 -106 351 -216 89 -137 118 -271 128 -580 7 -214 8 -229 28
-249 l22 -21 21 21 c12 12 21 30 21 41 0 15 7 20 28 20 53 0 162 34 168 52 3
10 16 26 29 36 17 13 22 25 18 41 -4 15 -1 21 11 21 9 0 16 4 16 9 0 5 14 14
30 21 24 10 31 20 36 51 6 36 10 40 61 59 29 11 60 20 68 20 21 0 42 39 50 92
3 27 8 48 11 48 14 0 64 -32 64 -40 0 -6 7 -10 15 -10 8 0 33 -16 55 -37 l41
-36 139 2 c107 2 151 -2 192 -15 94 -29 102 -35 103 -75 1 -20 11 -49 23 -63
11 -15 18 -34 15 -42 -3 -9 4 -28 16 -44 11 -16 21 -39 21 -51 0 -40 13 -10
21 47 4 30 16 67 26 81 27 39 29 42 64 126 l33 77 205 -2 206 -3 3 -25 c2 -15
14 -32 32 -42 17 -9 30 -15 30 -13 0 2 32 108 71 236 l71 234 -7 87 -7 87 71
103 c42 62 81 133 97 178 15 41 31 79 36 85 4 5 106 26 226 46 119 20 263 49
318 64 l102 27 164 -14 165 -14 134 -78 c74 -43 151 -90 173 -103 l38 -25 -4
-64 c-2 -35 -2 -64 0 -64 2 0 17 11 34 25 16 14 36 25 43 25 32 0 25 25 -20
69 l-46 48 68 137 c37 75 73 136 80 136 16 0 17 47 1 52 -8 3 1 40 27 119 46
141 50 149 78 150 l22 0 -22 9 c-26 10 -85 132 -76 155 3 9 -2 26 -10 39 -9
13 -14 32 -12 42 5 23 -73 91 -113 99 -15 3 -47 17 -72 30 -44 23 -45 24 -52
87 -20 169 -19 175 7 207 30 35 46 121 23 121 -8 0 -19 -5 -24 -10 -7 -7 -110
-4 -323 10 -172 11 -314 20 -317 20 -2 0 -4 7 -4 15 0 12 6 14 28 8 57 -16
204 -7 265 16 91 36 187 151 158 190 -21 29 -34 66 -32 92 1 16 -9 35 -24 49
-14 13 -25 29 -25 36 0 7 -13 29 -30 47 -16 19 -30 41 -30 50 0 8 -16 29 -35
46 -19 17 -35 36 -35 44 0 16 -33 47 -77 73 -18 10 -33 24 -33 31 0 16 -58 53
-82 53 -10 0 -31 13 -48 30 -18 17 -41 30 -56 30 -14 0 -27 7 -31 18 -4 9 -11
20 -16 23 -5 4 0 16 12 28 l21 21 -19 39 c-19 35 -58 71 -80 71 -20 0 -121 66
-121 78 0 27 34 73 50 66 59 -25 101 -35 144 -33 43 3 51 0 59 -19 21 -46 85
-5 67 42 -6 17 -15 20 -42 18 -28 -2 -38 3 -58 30 -23 31 -25 44 -31 193 -7
167 -16 209 -64 290 -26 45 -92 111 -146 146 -20 13 -60 40 -90 60 -110 74
-239 96 -370 64 -57 -14 -82 -27 -116 -58 -52 -47 -153 -194 -153 -222 -1 -11
-18 -49 -40 -84 -32 -53 -37 -68 -28 -85 9 -16 6 -24 -16 -43 -35 -30 -57 -29
-93 5 -39 35 -105 72 -131 72 -10 0 -31 -9 -45 -20 -21 -16 -30 -18 -52 -10
-15 6 -31 7 -36 4 -6 -3 -15 -1 -22 4 -7 5 -25 10 -40 10 -42 -1 -82 33 -82
67 0 24 -6 30 -33 37 -18 5 -35 15 -39 23 -3 8 -9 13 -13 10 -4 -3 -15 6 -24
19 -11 18 -27 26 -53 28 -33 3 -38 6 -36 26 2 12 -2 22 -7 22 -6 0 -10 11 -10
24 0 32 -28 56 -41 35 -8 -12 -10 -12 -18 1 -5 8 -6 20 -2 28 10 19 -9 60 -31
65 -9 3 -20 18 -23 33 -4 16 -9 36 -13 44 -9 23 -9 63 -1 80 26 52 27 99 2
113 -9 6 -13 17 -9 32 3 14 0 27 -8 34 -24 20 -13 74 30 153 12 23 13 35 4 70
-7 23 -9 54 -6 70 6 30 -8 78 -26 89 -12 8 -48 -11 -48 -24 0 -4 -6 -14 -12
-21 -13 -13 -43 -4 -59 17 -11 15 -215 -20 -261 -44 -10 -5 -33 -9 -52 -9 -18
0 -39 -7 -46 -15 -7 -8 -19 -15 -27 -15 -8 0 -45 -29 -81 -63 -71 -67 -94 -81
-128 -78 -12 1 -24 -5 -27 -13 -4 -9 -11 -16 -17 -16 -5 0 -19 -9 -30 -20 -11
-11 -27 -20 -35 -20 -13 0 -15 44 -17 316 -3 308 -4 317 -24 330 -18 12 -23
12 -36 -3z m884 -834 c-1 -19 -7 -38 -12 -43 -26 -26 11 -167 51 -197 11 -8
20 -22 19 -30 -5 -35 2 -51 30 -67 20 -11 34 -29 40 -53 10 -36 41 -59 80 -59
11 0 26 -10 35 -23 8 -13 31 -29 50 -37 20 -8 35 -21 35 -30 0 -33 106 -110
131 -94 6 3 16 1 22 -5 7 -5 22 -9 32 -9 11 1 32 -1 46 -5 19 -5 34 -1 52 13
14 11 31 20 37 20 14 0 80 -38 95 -55 17 -19 63 -45 80 -45 19 0 20 5 -16 -84
-30 -75 -31 -78 -13 -97 13 -15 26 -19 46 -15 34 7 43 -7 28 -45 -10 -23 -10
-32 1 -46 8 -9 12 -25 11 -36 -2 -12 7 -28 23 -42 24 -18 26 -24 16 -42 -19
-37 -13 -61 19 -78 44 -23 104 -17 193 20 14 6 17 2 17 -22 0 -54 -22 -147
-48 -203 -47 -101 -25 -236 53 -327 30 -35 40 -62 71 -184 31 -123 37 -168 44
-309 4 -91 12 -181 19 -200 29 -90 7 -248 -58 -402 -30 -71 -38 -81 -88 -112
-105 -66 -198 -71 -286 -14 -83 53 -107 112 -107 265 0 97 20 194 76 366 49
154 64 234 64 350 0 167 -31 270 -107 364 -46 57 -212 141 -295 150 -108 11
-168 -18 -168 -81 l0 -30 -34 33 c-40 39 -55 35 -109 -31 -74 -92 -107 -194
-107 -333 0 -162 50 -284 187 -458 120 -151 140 -183 152 -237 l11 -49 -48
-48 c-55 -56 -75 -108 -71 -190 3 -54 2 -57 -34 -82 -71 -50 -112 -131 -105
-210 l2 -36 -49 3 c-161 8 -421 133 -588 283 l-58 52 2 868 2 869 501 0 501 0
58 64 c31 36 57 66 57 68 0 3 -172 5 -770 7 l-345 1 5 492 c3 382 6 449 10
298 3 -107 7 -170 8 -140 1 30 6 50 10 43 5 -9 22 -6 65 11 31 13 57 20 57 15
0 -17 19 -9 46 19 17 18 28 23 31 15 5 -15 33 -18 33 -4 0 7 26 19 150 66 14
6 38 18 53 28 15 9 27 13 27 8 0 -5 -6 -11 -12 -14 -10 -3 -10 -7 1 -20 7 -10
19 -17 25 -17 6 0 3 5 -7 11 -15 9 -16 13 -5 26 10 12 9 17 -5 28 -12 8 -14
15 -8 20 6 3 11 21 11 40 0 19 4 36 9 39 16 11 23 59 9 68 -10 7 -10 9 2 5 10
-3 14 -15 12 -38z m-642 -589 l0 -410 -116 0 c-108 0 -115 1 -109 19 27 85 37
182 46 435 9 275 18 366 20 210 1 -43 5 -90 9 -104 l8 -25 7 31 c6 27 12 32
56 40 34 8 49 7 50 0 3 -28 18 87 18 147 1 37 3 67 6 67 3 0 5 -184 5 -410z
m2169 368 c72 -27 145 -98 161 -157 6 -23 9 -45 7 -48 -8 -7 -160 86 -195 120
-29 28 -72 94 -72 112 0 7 22 1 99 -27z m-2839 -21 c0 -2 -12 -14 -27 -28
l-28 -24 24 28 c23 25 31 32 31 24z m2595 -37 c-3 -5 -12 -10 -18 -10 -7 0 -6
4 3 10 19 12 23 12 15 0z m-120 -77 c36 -18 108 -83 255 -233 117 -118 225
-219 253 -235 61 -35 62 -57 1 -178 -36 -74 -44 -98 -39 -125 l6 -33 -38 7
c-106 19 -205 81 -252 158 -29 47 -28 136 4 240 13 44 25 99 27 120 2 36 -2
43 -52 88 -74 66 -161 108 -254 121 -42 6 -76 15 -76 19 0 5 11 27 26 49 23
37 28 40 57 33 18 -3 55 -18 82 -31z m584 -8 c16 -14 40 -42 51 -61 26 -41 15
-64 -31 -64 -30 0 -27 -5 -59 118 -10 39 -1 40 39 7z m-218 -92 c13 -16 12
-17 -3 -4 -10 7 -18 15 -18 17 0 8 8 3 21 -13z m-343 -33 c34 -16 87 -53 118
-82 54 -51 56 -54 49 -93 -8 -55 -48 -139 -96 -202 -38 -51 -35 -70 7 -38 28
21 34 18 34 -17 0 -49 36 -113 96 -167 42 -38 72 -55 136 -77 74 -24 80 -28
63 -40 -16 -12 -20 -12 -27 0 -6 11 -16 12 -48 4 -28 -7 -44 -7 -53 0 -10 9
-22 5 -50 -13 -21 -15 -38 -21 -42 -15 -11 17 -44 11 -85 -16 -22 -15 -46 -24
-55 -20 -10 4 -19 -2 -25 -17 -14 -36 -11 0 6 66 8 33 24 78 35 99 10 20 19
39 19 42 0 10 -36 -8 -83 -42 -86 -62 -190 -89 -230 -59 -14 10 -15 17 -5 50
10 33 9 39 -10 60 -12 12 -22 31 -22 42 -1 11 -2 43 -3 71 -3 59 -19 84 -54
84 -24 0 -25 2 -19 38 12 65 62 162 84 162 30 0 34 -25 16 -95 -20 -78 -13
-123 23 -156 l26 -24 -8 25 c-34 111 2 222 86 265 34 18 91 19 107 3 9 -9 15
-9 23 -1 15 15 -36 53 -74 53 -16 0 -58 -5 -93 -12 -50 -9 -66 -9 -79 2 -23
19 -18 42 23 105 l37 57 55 -6 c30 -4 83 -20 118 -36z m536 -46 c3 -8 2 -12
-4 -9 -6 3 -10 10 -10 16 0 14 7 11 14 -7z m136 -239 c-12 -15 -62 -45 -74
-45 -2 0 -2 9 1 19 3 10 21 25 41 33 43 17 50 15 32 -7z m24 -96 c4 -22 14
-52 23 -66 l17 -26 -53 7 c-56 7 -111 30 -111 45 0 22 13 41 29 41 9 0 30 9
46 19 41 27 42 26 49 -20z m126 -114 c0 -8 -4 -15 -9 -15 -13 0 -22 16 -14 24
11 11 23 6 23 -9z m-287 -99 c18 -12 53 -33 79 -45 27 -13 56 -35 67 -49 17
-25 17 -28 1 -44 -22 -24 -53 -23 -75 2 -12 13 -31 20 -54 20 -33 0 -37 4 -53
43 -19 44 -23 79 -11 90 9 10 11 9 46 -17z m-2363 -858 l0 -803 -20 25 c-38
47 -95 155 -141 270 -53 129 -74 151 -63 68 18 -148 91 -359 174 -497 l50 -84
0 -862 0 -862 -39 -11 c-21 -7 -50 -12 -64 -12 l-26 0 -4 587 c-4 643 -7 674
-72 897 -48 166 -97 242 -196 306 -48 31 -55 39 -47 54 17 30 -1 50 -127 144
-202 150 -314 286 -351 426 -8 28 -14 100 -14 159 0 183 41 264 235 466 281
294 305 323 377 453 l43 77 143 1 142 0 0 -802z m2280 716 c0 -3 -33 -51 -73
-107 -41 -56 -125 -178 -187 -272 -128 -193 -118 -180 -126 -172 -7 7 141 251
240 395 39 57 76 113 83 124 6 11 17 25 25 29 15 10 38 12 38 3z m-190 -8 c0
-5 -170 -283 -232 -378 -45 -70 -68 -93 -68 -70 0 5 41 73 91 153 118 185 159
255 159 268 0 5 8 15 18 20 18 11 32 14 32 7z m54 -8 c-5 -7 -45 -69 -89 -138
-136 -210 -207 -329 -203 -342 3 -8 11 -3 20 12 45 72 294 465 301 474 5 8 10
7 16 -2 6 -10 -20 -56 -83 -150 -50 -76 -123 -188 -161 -249 -39 -62 -75 -113
-81 -113 -6 0 -18 8 -27 18 -15 16 -11 26 55 132 177 290 231 367 256 370 2 0
0 -6 -4 -12z m133 -75 c-30 -43 -111 -159 -180 -258 -165 -237 -160 -230 -164
-218 -4 12 194 315 304 466 82 110 117 119 40 10z m106 65 c-16 -27 -257 -355
-289 -395 -19 -23 -47 -71 -64 -107 -16 -36 -31 -66 -34 -66 -2 0 -11 3 -20 6
-12 5 -5 21 36 82 171 255 346 492 364 492 10 0 12 -5 7 -12z m-517 -165 c-47
-81 -92 -157 -100 -168 -15 -19 -15 -19 -16 7 0 18 28 69 80 147 44 66 80 123
80 127 0 11 32 45 38 40 2 -3 -34 -71 -82 -153z m137 150 c8 -8 -17 -53 -137
-242 -53 -84 -92 -137 -94 -128 -3 16 207 377 219 377 3 0 9 -3 12 -7z m281
-192 c-71 -100 -134 -181 -141 -181 -7 0 38 69 99 153 156 214 159 219 165
213 3 -3 -52 -86 -123 -185z m135 122 c-79 -116 -211 -293 -220 -293 -5 0 9
28 32 63 76 112 210 289 216 284 3 -3 -10 -27 -28 -54z m61 4 c-17 -23 -72
-99 -123 -169 -101 -140 -153 -179 -60 -45 118 170 194 268 204 262 5 -4 -3
-24 -21 -48z m-610 6 c0 -15 -124 -195 -128 -185 -2 6 2 29 8 52 15 54 120
171 120 133z m653 -15 c-6 -7 -57 -76 -113 -153 -57 -77 -105 -142 -107 -144
-1 -2 -5 -2 -8 1 -12 12 206 308 226 308 8 0 8 -4 2 -12z m26 -30 c-63 -92
-213 -287 -217 -283 -3 3 17 38 44 77 72 106 185 250 191 244 3 -3 -5 -20 -18
-38z m-61 -141 c-62 -85 -115 -153 -117 -151 -5 5 28 53 142 207 44 59 82 106
84 103 2 -2 -47 -74 -109 -159z m142 126 c-1 -13 -210 -298 -222 -302 -21 -7
1 29 103 169 91 125 120 157 119 133z m50 -10 c0 -14 -234 -315 -238 -305 -1
5 47 78 109 161 98 134 129 168 129 144z m19 -45 c-44 -64 -209 -277 -219
-283 -6 -3 -10 -3 -10 0 0 13 232 315 241 315 6 0 0 -15 -12 -32z m41 -14 c0
-17 -132 -191 -205 -269 -65 -71 -29 -9 80 135 91 121 125 157 125 134z m39
-33 c-11 -15 -222 -285 -235 -300 -2 -2 -7 -1 -10 2 -4 4 10 28 31 54 20 27
74 96 119 155 44 59 87 108 95 108 11 0 11 -3 0 -19z m44 -14 c2 -9 -245 -325
-255 -326 -27 -3 2 40 156 236 73 93 94 112 99 90z m11 -59 c-5 -7 -42 -53
-83 -103 -41 -49 -94 -116 -118 -149 -24 -32 -43 -51 -43 -42 0 20 225 306
241 306 5 0 7 -6 3 -12z m33 -26 c-8 -10 -69 -83 -135 -164 -67 -81 -123 -144
-126 -140 -6 10 257 332 267 325 4 -3 2 -12 -6 -21z m41 -12 c-5 -16 -272
-339 -280 -340 -18 -1 -2 23 103 150 61 74 122 149 136 167 24 31 49 45 41 23z
m22 -49 c0 -14 -285 -342 -288 -332 -3 9 71 103 226 289 41 49 62 64 62 43z
m-562 -56 c128 -60 238 -205 250 -326 5 -57 2 -66 -116 -309 -74 -152 -86
-165 -292 -334 -139 -114 -202 -160 -273 -201 l-49 -28 46 84 c47 87 100 233
112 307 l7 42 36 -7 c75 -16 181 1 181 29 0 10 -19 8 -68 -7 -22 -7 -22 -7 8
56 16 35 30 70 30 77 0 7 12 12 29 12 37 0 90 36 115 80 15 25 21 53 21 96 0
58 2 63 32 83 28 18 93 111 93 134 0 19 -18 2 -45 -44 -16 -27 -40 -60 -53
-71 l-23 -22 -45 52 c-47 54 -105 82 -130 61 -14 -12 -54 -93 -54 -111 0 -7
12 3 28 21 27 32 28 33 69 22 23 -6 55 -24 72 -40 28 -26 31 -35 31 -88 0 -32
-6 -69 -13 -83 -19 -37 -74 -70 -118 -70 -38 0 -39 -1 -39 -34 0 -26 -37 -115
-55 -135 -7 -7 -112 32 -164 62 l-53 30 7 123 c5 87 3 138 -5 172 -17 63 -8
94 39 145 l38 40 34 -20 c43 -25 42 -51 -1 -134 l-31 -59 27 -25 c27 -25 67
-32 93 -16 19 12 6 28 -29 36 -16 4 -32 10 -35 15 -3 5 15 50 40 101 44 86 45
92 29 110 -9 10 -37 26 -63 35 -25 10 -48 19 -50 20 -2 2 9 33 24 69 26 61 31
66 74 80 69 22 151 12 239 -30z m546 -32 c-27 -32 -85 -98 -129 -148 -44 -49
-93 -105 -108 -123 -15 -19 -27 -29 -27 -23 0 20 298 366 308 357 2 -3 -17
-31 -44 -63z m-1730 -117 c106 -52 176 -107 176 -137 0 -24 -67 -69 -102 -69
-64 0 -69 -15 -38 -105 11 -32 18 -60 16 -63 -3 -2 -19 -5 -37 -5 -31 -2 -34
1 -52 48 -10 28 -22 54 -27 59 -4 4 -35 -1 -69 -13 -128 -44 -151 15 -86 218
19 60 35 129 35 154 l0 46 43 -42 c26 -26 81 -62 141 -91z m1775 117 c-111
-141 -253 -303 -265 -303 -10 0 8 28 48 73 35 40 97 112 138 160 41 48 79 87
84 87 5 0 2 -8 -5 -17z m51 -15 c0 -7 -37 -54 -83 -103 -45 -50 -103 -115
-129 -145 -26 -30 -50 -51 -53 -48 -7 7 141 195 209 266 41 43 56 51 56 30z
m-2 -66 c-45 -63 -195 -232 -206 -232 -17 0 1 23 116 153 48 53 90 97 95 97 4
0 2 -8 -5 -18z m-49 -119 c-45 -54 -87 -100 -93 -102 -6 -2 -4 5 5 15 9 10 48
59 89 107 40 48 75 86 77 83 3 -2 -32 -48 -78 -103z m41 -7 c-29 -36 -60 -68
-68 -71 -14 -5 -14 -4 -1 12 93 112 112 133 116 129 3 -3 -18 -34 -47 -70z
m35 -4 c-21 -20 -32 -28 -25 -17 26 37 53 65 59 60 3 -3 -12 -22 -34 -43z
m-1651 -119 c36 -72 28 -175 -24 -289 -32 -71 -64 -90 -132 -80 -86 13 -227
95 -254 148 -8 15 -14 41 -14 58 0 27 3 30 30 30 17 0 49 9 71 21 23 11 44 18
47 14 4 -3 13 -25 22 -47 8 -23 22 -45 31 -51 18 -12 55 -4 84 17 18 13 19 18
8 58 -6 23 -14 50 -18 59 -4 12 4 19 34 28 23 6 53 23 68 36 16 13 29 25 30
25 1 0 9 -12 17 -27z m1556 -98 c151 -9 290 -20 309 -23 l34 -7 -25 -30 c-13
-17 -27 -38 -31 -47 -9 -25 18 -255 32 -272 16 -19 79 -52 117 -60 35 -8 107
-63 99 -77 -3 -4 0 -21 8 -36 8 -15 12 -33 10 -39 -2 -6 10 -41 27 -79 l30
-68 -45 -136 c-25 -75 -44 -145 -43 -156 1 -11 -28 -82 -66 -157 l-69 -138
-31 19 c-17 10 -86 51 -154 90 l-123 73 -172 14 -173 15 -94 -26 c-52 -14
-200 -44 -328 -65 -129 -22 -237 -42 -242 -45 -5 -3 -25 -49 -46 -103 -20 -53
-49 -113 -64 -132 -15 -19 -45 -62 -66 -94 l-39 -59 -1 -116 c-1 -111 -3 -122
-47 -251 -26 -74 -44 -119 -42 -99 6 42 -7 50 -66 41 -32 -5 -33 -6 -9 -13 22
-6 20 -7 -12 -8 -20 -1 -40 -5 -43 -11 -3 -5 -30 -11 -58 -11 -49 -2 -50 -2
-17 -9 32 -7 31 -7 -18 -9 -33 0 -51 -5 -47 -11 3 -5 -2 -10 -12 -10 -15 0
-16 -2 -3 -10 8 -5 64 -10 124 -10 60 0 107 -2 105 -5 -3 -2 -109 -5 -237 -6
-127 0 -230 -5 -227 -10 5 -7 -35 -104 -78 -189 -14 -28 -38 -33 -45 -10 -4
12 -2 12 8 3 11 -10 16 -9 26 5 8 9 14 26 14 38 0 11 6 26 12 32 10 10 10 15
-1 21 -9 6 -10 11 -2 15 6 4 11 1 11 -6 0 -8 5 -6 11 5 14 23 6 31 -18 20 -10
-5 -30 -9 -45 -8 -16 0 -30 -5 -33 -14 -3 -9 -3 -12 1 -9 9 10 44 -10 43 -25
0 -9 -2 -9 -6 1 -9 22 -25 12 -21 -13 3 -14 2 -27 -1 -30 -4 -2 -8 6 -8 18 -3
33 -54 76 -113 94 -39 11 -101 17 -210 19 l-155 3 -26 31 c-14 16 -33 30 -42
30 -9 0 -20 6 -24 14 -11 18 -67 46 -92 46 -25 0 -32 -12 -46 -79 l-11 -56
-64 -23 c-77 -28 -100 -46 -100 -82 0 -18 -7 -30 -23 -37 l-24 -11 -6 711 c-4
391 -4 713 -2 715 3 3 49 -37 103 -89 210 -202 368 -294 555 -324 49 -8 103
-22 120 -31 23 -12 61 -18 132 -19 55 -1 134 -7 175 -13 154 -23 313 -6 411
43 42 21 279 174 373 242 43 30 76 79 79 114 1 13 20 36 49 58 50 37 92 105
86 139 -2 10 13 39 33 63 48 59 61 85 57 118 -2 21 11 46 54 102 65 85 108
170 108 215 0 17 11 45 26 65 28 36 144 269 144 288 0 7 10 9 23 7 12 -3 146
-12 297 -21z m-1670 -321 c-8 -8 -23 -20 -34 -25 -13 -6 -10 0 9 15 34 29 43
33 25 10z m-5 -34 c-3 -5 -20 -19 -38 -30 l-32 -22 33 31 c32 30 49 40 37 21z
m-23 -62 c-19 -16 -37 -27 -40 -23 -4 4 9 19 28 35 45 37 55 27 12 -12z
m-1249 -207 c76 -103 129 -156 235 -236 160 -120 316 -191 484 -219 35 -6 36
-8 31 -41 -12 -73 71 -175 142 -175 16 0 84 9 150 20 66 11 136 18 155 15 30
-5 52 4 160 66 250 142 253 143 357 144 l93 1 47 45 c44 43 174 147 243 194
16 11 34 30 41 42 7 12 34 41 61 63 46 40 48 40 48 17 0 -24 -68 -91 -250
-249 -67 -58 -210 -163 -232 -171 -7 -2 -10 -8 -6 -12 3 -4 38 10 76 30 64 33
139 90 273 205 l52 45 -7 -30 c-9 -38 -37 -67 -106 -115 -30 -21 -66 -49 -79
-64 -13 -14 -59 -49 -102 -77 -43 -28 -76 -55 -73 -60 3 -6 22 0 42 12 20 12
53 31 72 42 19 11 54 36 78 55 24 19 45 32 47 30 10 -10 -38 -70 -77 -94 -24
-15 -106 -69 -183 -120 -189 -124 -232 -139 -405 -139 -253 1 -388 12 -471 39
-42 14 -117 36 -166 50 -193 54 -339 151 -527 346 -130 137 -183 206 -245 322
-36 66 -101 225 -101 246 0 4 19 -28 43 -70 23 -43 68 -113 100 -157z m2365
167 c-35 -67 -129 -174 -192 -220 -22 -15 -47 -42 -57 -58 -10 -16 -38 -41
-61 -56 -24 -15 -77 -59 -118 -98 -42 -40 -96 -86 -121 -103 -39 -27 -51 -30
-91 -26 -68 8 -168 -26 -273 -93 -192 -121 -198 -124 -267 -124 -35 -1 -92 -7
-128 -15 -94 -21 -178 -19 -216 4 -37 22 -64 76 -64 125 l0 36 45 0 45 0 -6
68 c-9 96 15 150 84 189 l49 27 -1 81 c0 95 26 160 70 171 48 12 73 -43 74
-169 0 -32 6 -73 14 -92 38 -89 253 -156 411 -126 132 25 560 295 750 474 39
36 74 66 78 67 5 0 -7 -28 -25 -62z m-1123 -3 c-16 -13 -32 -22 -35 -19 -3 3
8 16 25 29 16 13 32 22 35 19 3 -3 -8 -16 -25 -29z m21 -24 c-9 -14 -66 -54
-66 -46 0 10 62 66 67 61 3 -3 2 -9 -1 -15z m-26 -56 c-13 -14 -26 -22 -29
-19 -3 3 5 14 18 25 33 27 39 24 11 -6z m0 -40 c-13 -14 -26 -23 -28 -20 -7 7
29 45 41 45 6 0 0 -11 -13 -25z m0 -40 c-7 -8 -17 -15 -23 -15 -5 0 -2 9 8 20
21 23 35 19 15 -5z m20 -8 c0 -2 -10 -12 -22 -23 l-23 -19 19 23 c18 21 26 27
26 19z m-5 -47 c-10 -11 -23 -20 -28 -20 -6 0 -2 9 8 20 10 11 23 20 28 20 6
0 2 -9 -8 -20z m5 -35 c-7 -8 -17 -15 -23 -15 -5 0 -2 9 8 20 21 23 35 19 15
-5z m10 -30 c-7 -8 -17 -15 -23 -15 -5 0 -2 9 8 20 21 23 35 19 15 -5z m10
-30 c-11 -13 -10 -14 6 -8 17 6 18 5 5 -11 -13 -16 -15 -16 -24 -1 -8 16 10
52 21 40 3 -2 -1 -11 -8 -20z m25 -45 c-3 -5 -1 -10 5 -10 6 0 8 -4 5 -10 -4
-6 -11 -5 -19 3 -15 13 -12 27 5 27 6 0 7 -4 4 -10z m35 -34 c0 -3 -4 -8 -10
-11 -5 -3 -10 -1 -10 4 0 6 5 11 10 11 6 0 10 -2 10 -4z m360 -1337 c0 -15
-18 -19 -23 -6 -3 8 1 14 9 14 8 0 14 -4 14 -8z"/>
<path d="M3791 4297 c-42 -51 -52 -150 -24 -233 19 -57 110 -154 161 -172 l32
-11 0 52 c0 55 33 140 63 166 28 22 20 36 -35 62 -68 31 -168 105 -168 123 0
21 -16 28 -29 13z m45 -68 c16 -17 59 -49 97 -71 37 -22 67 -41 67 -42 0 0
-14 -28 -30 -60 -17 -32 -30 -74 -30 -92 0 -44 -15 -43 -69 2 -46 40 -87 112
-97 171 -6 40 10 123 25 123 4 0 20 -14 37 -31z"/>
<path d="M3806 4164 c-11 -55 19 -142 62 -183 l37 -34 8 34 c5 19 17 52 28 74
10 22 19 44 19 48 0 4 -19 16 -42 26 -24 10 -54 30 -67 45 -32 34 -37 33 -45
-10z m112 -64 c8 0 11 -6 8 -12 -2 -7 -10 -30 -17 -51 -7 -21 -17 -36 -23 -34
-22 7 -48 57 -54 102 l-5 48 39 -27 c21 -14 45 -26 52 -26z"/>
<path d="M3435 801 c-3 -5 -1 -12 5 -16 5 -3 10 1 10 9 0 18 -6 21 -15 7z"/>
</g>
</svg>
